# xmcd
#
# Track frame offsets:
# 150
# 17210
# 33850
# 51390
# 64216
# 81600
# 101788
# 116449
# 137188
# 150152
#
# Disc length: 2220 seconds
#
#
# Revision: 0
# Processed by: cddbd v1.5.2PL0 Copyright (c) Steve Scherf et al.
# Submitted via: FreeRIP 2.945 
#
DISCID=8508aa0a
DTITLE=Peabo Bryson - Turn The Hands Of Time
DYEAR=1900
DGENRE=R&B
TTITLE0=I've been Down
TTITLE1=My Life
TTITLE2=A Fool Such As I
TTITLE3=Man On A String
TTITLE4=Turn The Hands Of Time
TTITLE5=Friction
TTITLE6=Why Don't you Make Up Your Mind
TTITLE7=Another Love Song
TTITLE8=Piece Of My Heart
TTITLE9=Dwellers Of The Sky
EXTD=
EXTT0=
EXTT1=
EXTT2=
EXTT3=
EXTT4=
EXTT5=
EXTT6=
EXTT7=
EXTT8=
EXTT9=
PLAYORDER=
